<svg width="22" height="22" viewBox="0 0 22 22" fill="none" xmlns="http://www.w3.org/2000/svg">
<path d="M11 0C6.45083 0 2.75 3.70083 2.75 8.25C2.75 12.7477 8.30141 22 11 22C13.6986 22 19.25 12.7477 19.25 8.25C19.25 3.70083 15.5492 0 11 0ZM11 21.2143C8.89182 21.2143 3.53571 12.5719 3.53571 8.25C3.53571 4.1342 6.8842 0.785714 11 0.785714C15.1158 0.785714 18.4643 4.1342 18.4643 8.25C18.4643 12.5719 13.1082 21.2143 11 21.2143Z" fill="#525A68"/>
<path d="M10.9999 3.14285C8.61705 3.14285 6.67847 5.08143 6.67847 7.46428C6.67847 9.84713 8.61705 11.7857 10.9999 11.7857C13.3827 11.7857 15.3213 9.84713 15.3213 7.46428C15.3213 5.08143 13.3827 3.14285 10.9999 3.14285ZM10.9999 11C9.05043 11 7.46418 9.41375 7.46418 7.46428C7.46418 5.51481 9.05043 3.92857 10.9999 3.92857C12.9494 3.92857 14.5356 5.51481 14.5356 7.46428C14.5356 9.41375 12.9494 11 10.9999 11Z" fill="#525A68"/>
<path d="M11 4.71429C9.48357 4.71429 8.25 5.94787 8.25 7.46429C8.25 8.98072 9.48357 10.2143 11 10.2143C12.5164 10.2143 13.75 8.98072 13.75 7.46429C13.75 5.94787 12.5164 4.71429 11 4.71429ZM11 9.42858C9.91695 9.42858 9.03571 8.54735 9.03571 7.46429C9.03571 6.38124 9.91695 5.50001 11 5.50001C12.0831 5.50001 12.9643 6.38124 12.9643 7.46429C12.9643 8.54735 12.0831 9.42858 11 9.42858Z" fill="#525A68"/>
</svg>
