<svg width="62" height="62" viewBox="0 0 62 62" fill="none" xmlns="http://www.w3.org/2000/svg">
<g clip-path="url(#clip0)">
<path d="M4.17026 38.0807C4.36904 38.6195 4.68224 39.1046 5.083 39.502C5.79363 40.2126 6.77053 40.6538 7.84818 40.6538C8.92263 40.6538 9.90273 40.2126 10.6132 39.502C11.3239 38.7915 11.765 37.8114 11.765 36.7369V34.5579C10.94 34.6285 10.2158 34.4501 9.65001 34.2142C9.5994 34.4601 9.54225 34.6992 9.46811 34.935C9.18854 35.8443 8.72041 36.6729 7.97947 37.269C7.22844 37.8753 6.23159 38.2256 4.91119 38.1581C4.67546 38.148 4.42952 38.1211 4.17026 38.0807ZM27.2548 32.244H35.0888V29.782H29.0567C28.5616 29.782 28.1102 29.9875 27.7836 30.3141C27.4568 30.6409 27.2548 31.0888 27.2548 31.5839V32.244ZM35.0887 34.0257H27.2547V36.7368C27.2547 37.8112 27.6959 38.7914 28.4065 39.5019C29.117 40.2125 30.0971 40.6537 31.1716 40.6537C32.2492 40.6537 33.2293 40.2125 33.9368 39.5019C34.6473 38.7914 35.0886 37.8112 35.0886 36.7368V34.0257H35.0887ZM59.507 39.9736C59.9852 40.2262 60.4062 40.5698 60.7531 40.9772C61.3762 41.7115 61.7501 42.6578 61.7501 43.685V49.6935C61.7501 50.1852 61.3526 50.5826 60.861 50.5826C60.3693 50.5826 59.9684 50.1851 59.9684 49.6935V43.685C59.9684 43.0923 59.7528 42.5466 59.3959 42.1257C59.0792 41.7518 58.6515 41.4756 58.1632 41.3443C57.2236 42.0313 56.0681 42.4355 54.8221 42.4355C53.5322 42.4355 52.3398 42.0045 51.3799 41.2736C51.1981 41.2938 51.0229 41.3445 50.8545 41.4219C50.6254 41.5296 50.4167 41.6947 50.2482 41.9169L45.4622 48.2556C45.2938 48.4779 45.0311 48.6126 44.7517 48.6126H38.6186C38.1639 48.6126 37.753 48.7944 37.4567 49.0907C37.1602 49.3905 36.975 49.8014 36.975 50.2527C36.975 50.7073 37.1602 51.1183 37.4567 51.4146C37.753 51.711 38.1639 51.8963 38.6186 51.8963H45.9439C46.2371 51.8963 46.4626 51.866 46.7423 51.7245C47.2609 51.4651 47.7459 50.6771 48.0995 50.2056L51.2689 46.0125C51.5653 45.6185 52.1209 45.5409 52.5149 45.8373C52.9056 46.1337 52.9831 46.6927 52.6867 47.0835L49.6724 51.0778V58.8444H59.9684V53.7283C59.9684 53.2365 60.3692 52.8392 60.861 52.8392C61.3528 52.8392 61.7501 53.2367 61.7501 53.7283V59.7368C61.7501 60.2286 61.3526 60.6259 60.861 60.6259C41.1748 60.6259 21.4921 60.6259 1.80929 60.6259C1.31763 60.6259 0.916748 60.2285 0.916748 59.7368V53.7283C0.916748 53.2365 1.31763 52.8392 1.80929 52.8392C2.30106 52.8392 2.69838 53.2367 2.69838 53.7283V58.8444H12.9979V51.0778L9.9802 47.0835C9.68388 46.6927 9.76134 46.1337 10.1555 45.8373C10.5461 45.5409 11.1051 45.6184 11.4016 46.0125L14.5 50.1147C14.7829 50.4885 15.066 50.8656 15.3487 51.2429C15.5103 51.455 15.7091 51.6167 15.9281 51.7245C16.1739 51.8491 16.403 51.8963 16.6725 51.8963H24.0517C24.5031 51.8963 24.914 51.711 25.2136 51.4146C25.51 51.1183 25.6918 50.7073 25.6918 50.2527C25.6918 49.8014 25.51 49.3905 25.2136 49.0907C24.914 48.7944 24.5031 48.6126 24.0517 48.6126H17.9153C17.6458 48.6126 17.3798 48.488 17.2048 48.2556L12.4188 41.9169C12.1458 41.5565 11.7383 41.3243 11.2872 41.2736C10.3306 42.0011 9.1384 42.4355 7.84842 42.4355C6.60229 42.4355 5.4436 42.0314 4.50401 41.3478C4.02578 41.4724 3.60138 41.7452 3.28473 42.1089C2.92092 42.5332 2.69862 43.0822 2.69862 43.6851V49.6936C2.69862 50.1854 2.30118 50.5827 1.80952 50.5827C1.31787 50.5827 0.916986 50.1852 0.916986 49.6936V43.6851C0.916986 42.6444 1.30432 41.6846 1.94082 40.947C2.28443 40.553 2.69862 40.2195 3.16342 39.9737C2.49996 39.0205 2.14969 37.8956 2.14969 36.737V31.584C2.14969 30.5972 2.55046 29.7013 3.20049 29.0514C3.85065 28.4048 4.74307 28.0006 5.72983 28.0006H9.96333C10.9502 28.0006 11.8461 28.4047 12.496 29.0514C13.1461 29.7014 13.5469 30.5973 13.5469 31.584V36.737C13.5469 37.8787 13.2067 38.9465 12.624 39.8389C13.1056 40.0814 13.5131 40.4148 13.8398 40.846L18.3564 46.8275H21.923V43.2138C21.923 42.1899 22.4653 41.2637 23.3443 40.4789C24.0247 39.8727 24.9206 39.3438 25.9108 38.9263C25.6279 38.2493 25.4731 37.5117 25.4731 36.737V33.1366V31.5839C25.4731 30.597 25.8772 29.7012 26.524 29.0512C27.1741 28.4047 28.0699 28.0004 29.0567 28.0004H35.9812C36.4731 28.0004 36.8739 28.4012 36.8739 28.893V33.1367V36.737C36.8739 37.4679 36.7325 38.1685 36.4799 38.8151C37.5441 39.2328 38.5074 39.7716 39.235 40.398C40.1678 41.1996 40.7438 42.1561 40.7438 43.2136V46.8274H44.3104L48.827 40.8459C49.1606 40.408 49.5781 40.0712 50.0463 39.8423C49.4602 38.9464 49.12 37.8787 49.12 36.7369V31.5839C49.12 30.597 49.5242 29.7012 50.171 29.0512C50.821 28.4047 51.7169 28.0004 52.7036 28.0004H56.9374C57.9241 28.0004 58.8201 28.4045 59.47 29.0512C60.1166 29.7013 60.5208 30.5972 60.5208 31.5839V36.7369C60.5207 37.8954 60.1671 39.0203 59.507 39.9736ZM58.4966 38.0807C58.2406 38.1211 57.9914 38.148 57.7556 38.1581C56.4387 38.2254 55.4417 37.8752 54.6907 37.269C53.9463 36.6729 53.4782 35.8444 53.1986 34.935C53.1278 34.6992 53.0673 34.4601 53.02 34.2142C52.4509 34.45 51.7302 34.6284 50.9017 34.5579V36.7369C50.9017 37.8114 51.3428 38.7915 52.0535 39.502C52.764 40.2126 53.7442 40.6538 54.822 40.6538C55.8963 40.6538 56.8765 40.2126 57.5872 39.502C57.9847 39.1046 58.2978 38.6195 58.4966 38.0807ZM50.9017 32.7728C52.0905 32.9411 52.9594 32.2507 53.1144 32.116C53.2896 31.9678 53.4545 31.8769 53.6937 31.8667C54.1855 31.8432 54.5997 32.2204 54.6232 32.7121C54.6536 33.2914 54.7343 33.8775 54.8993 34.4129C55.0812 35.009 55.3675 35.5344 55.8021 35.8847C56.2298 36.2283 56.8328 36.4236 57.6714 36.3831C57.9947 36.3662 58.3483 36.3158 58.7389 36.2282V31.5837C58.7389 31.0886 58.5335 30.6406 58.2068 30.3139C57.8802 29.9873 57.4321 29.7817 56.9371 29.7817H52.7035C52.2084 29.7817 51.7603 29.9873 51.4337 30.3139C51.107 30.6406 50.9017 31.0886 50.9017 31.5837V32.7728ZM11.7652 32.7728V31.5838C11.7652 31.0887 11.5632 30.6408 11.2364 30.314C10.9098 29.9874 10.4584 29.7818 9.96333 29.7818H5.72959C5.23793 29.7818 4.78656 29.9874 4.45981 30.314C4.13319 30.6408 3.93109 31.0887 3.93109 31.5838V36.2283C4.31842 36.3158 4.67202 36.3663 4.99543 36.3832C5.83415 36.4237 6.43702 36.2283 6.86463 35.8848C7.29914 35.5346 7.58536 35.0091 7.77072 34.413C7.93575 33.8775 8.01654 33.2915 8.04352 32.7122C8.06704 32.2204 8.48468 31.8433 8.97301 31.8668C9.20208 31.877 9.3771 31.9611 9.54558 32.1093C9.67033 32.2204 10.5528 32.9445 11.7652 32.7728ZM26.8642 40.4586C25.9345 40.8189 25.1127 41.277 24.5266 41.8025C24.0181 42.2537 23.7048 42.7387 23.7048 43.2136V46.8274H24.0517C24.9949 46.8274 25.8537 47.2113 26.4734 47.831C27.0931 48.4508 27.477 49.3063 27.477 50.2527C27.477 50.8488 27.3221 51.408 27.0561 51.8963H35.6108C35.3447 51.408 35.1931 50.8488 35.1931 50.2527C35.1931 49.3063 35.577 48.4508 36.1969 47.831C36.8166 47.2113 37.672 46.8274 38.6184 46.8274H38.9621V43.2136C38.9621 42.7219 38.6252 42.2167 38.0796 41.7485C37.4397 41.1996 36.5505 40.7247 35.5603 40.3643C35.4457 40.5024 35.3245 40.6371 35.1999 40.7618C34.166 41.7957 32.7413 42.4356 31.1718 42.4356C29.6056 42.4356 28.1777 41.7957 27.1471 40.7618C27.0493 40.6639 26.955 40.563 26.8642 40.4586ZM8.34329 8.3312C7.85151 8.3312 7.45419 7.93044 7.45419 7.43866C7.45419 6.94689 7.85163 6.54957 8.34329 6.54957H24.8398C25.3316 6.54957 25.729 6.94701 25.729 7.43866C25.729 7.93044 25.3315 8.3312 24.8398 8.3312H8.34329ZM8.34329 17.7077C7.85151 17.7077 7.45419 17.307 7.45419 16.8152C7.45419 16.3234 7.85163 15.9227 8.34329 15.9227H16.5917C17.0834 15.9227 17.4842 16.3234 17.4842 16.8152C17.4842 17.307 17.0834 17.7077 16.5917 17.7077H8.34329ZM8.34329 13.0195C7.85151 13.0195 7.45419 12.6186 7.45419 12.127C7.45419 11.6352 7.85163 11.2379 8.34329 11.2379H24.8398C25.3316 11.2379 25.729 11.6353 25.729 12.127C25.729 12.6186 25.3315 13.0195 24.8398 13.0195H8.34329ZM25.7526 22.5206C25.8772 22.8675 26.0758 23.1773 26.3286 23.4299C26.7799 23.8846 27.4063 24.1675 28.1034 24.1675H33.3407C33.8325 24.1675 34.2298 24.5649 34.2298 25.06C34.2298 25.5518 33.8323 25.9491 33.3407 25.9491H28.1034C26.9146 25.9491 25.8434 25.4642 25.0688 24.6828C24.4895 24.1002 24.0786 23.3525 23.9034 22.5206H11.4789L7.44409 26.5554C7.2825 26.7171 7.0602 26.8181 6.81093 26.8181C6.31915 26.8181 5.91839 26.4207 5.91839 25.929V22.4466C4.78667 22.2579 3.77283 21.7157 2.99494 20.9343C2.01484 19.9575 1.40864 18.6069 1.40864 17.1183V7.13568C1.40864 5.65038 2.01496 4.2998 2.99494 3.31982C3.9716 2.34304 5.32217 1.7334 6.81093 1.7334H26.3725C27.861 1.7334 29.2117 2.34304 30.1884 3.31982C31.1685 4.2998 31.7747 5.65038 31.7747 7.13568V8.78603H46.9108C48.0929 8.78603 49.164 9.2677 49.942 10.0457C50.72 10.8237 51.2017 11.8947 51.2017 13.0769V21.6586C51.2017 22.8408 50.72 23.9118 49.942 24.6898C49.366 25.2658 48.6252 25.68 47.8 25.8552V29.3579C47.8 29.5835 47.7158 29.8125 47.5406 29.9877C47.1937 30.3346 46.6279 30.3346 46.2808 29.9877L42.2427 25.9495H37.3759C36.8841 25.9495 36.4833 25.552 36.4833 25.0604C36.4833 24.5653 36.8841 24.1678 37.3759 24.1678H42.6131C42.8624 24.1678 43.0846 24.2689 43.2463 24.4339L46.0181 27.2057V25.0602C46.0181 24.5651 46.4189 24.1677 46.9108 24.1677C47.5978 24.1677 48.2276 23.8848 48.6823 23.4301C49.137 22.9755 49.4199 22.349 49.4199 21.6586V13.0769C49.4199 12.3865 49.137 11.7601 48.6823 11.3054C48.2276 10.8507 47.5978 10.5678 46.9108 10.5678H31.7746V17.1185C31.7746 18.6072 31.1684 19.9577 30.1883 20.9345C29.2115 21.9145 27.8609 22.5208 26.3724 22.5208H25.7526V22.5206ZM11.1084 20.7389H26.3724C27.3694 20.7389 28.2719 20.3314 28.9287 19.6747C29.5854 19.0179 29.9929 18.1119 29.9929 17.1183V7.13568C29.9929 6.14215 29.5854 5.23619 28.9287 4.57938C28.272 3.92257 27.3694 3.51503 26.3724 3.51503H6.81081C5.81383 3.51503 4.91119 3.92257 4.25438 4.57938C3.59769 5.23607 3.19004 6.14203 3.19004 7.13568V17.1184C3.19004 18.1119 3.59769 19.0179 4.25438 19.6748C4.91107 20.3315 5.81383 20.7391 6.81081 20.7391C7.30258 20.7391 7.6999 21.1398 7.6999 21.6316V23.777L10.4785 21.0019C10.6538 20.8265 10.8794 20.7389 11.1084 20.7389ZM47.8907 53.6778H14.7796V58.8443H47.8908V53.6778H47.8907Z" fill="#FFC80A"/>
</g>
<defs>
<clipPath id="clip0">
<rect width="60.8333" height="60.8333" fill="white" transform="translate(0.916748 0.763031)"/>
</clipPath>
</defs>
</svg>
