<svg width="62" height="62" viewBox="0 0 62 62" fill="none" xmlns="http://www.w3.org/2000/svg">
<g clip-path="url(#clip0)">
<path d="M51.1165 32.356C50.6276 32.356 50.2312 32.7524 50.2312 33.2413C50.2312 33.8612 49.727 34.3654 49.1071 34.3654C48.4874 34.3654 47.983 33.8612 47.983 33.2413C47.983 32.7523 47.5866 32.356 47.0977 32.356C46.6088 32.356 46.2124 32.7524 46.2124 33.2413C46.2124 34.8375 47.5111 36.136 49.1071 36.136C50.7031 36.136 52.0018 34.8374 52.0018 33.2413C52.0018 32.7521 51.6054 32.356 51.1165 32.356Z" fill="#FFC80A"/>
<path d="M59.4265 32.5006L56.9347 31.7024C56.6156 31.6001 56.3641 31.3454 56.262 31.0209C55.7368 29.3512 54.9444 27.7837 53.9065 26.3617C53.4335 25.7135 52.9075 25.0946 52.3329 24.5054C52.7005 22.8928 52.9004 21.0676 52.8745 19.4908C52.8374 17.2351 52.3866 15.9121 51.4965 15.4459C51.017 15.1945 49.558 14.4307 41.6607 18.0458C41.4737 18.1314 41.299 18.2367 41.1373 18.3575C40.6049 18.2144 40.0607 18.0821 39.5132 17.9632C39.4473 17.9489 39.3793 17.9361 39.3129 17.9221C39.9529 16.5241 40.3265 15.0058 40.3968 13.4384C40.4186 12.9498 40.0404 12.5361 39.5519 12.5144C39.0646 12.4901 38.6496 12.8706 38.6278 13.3592C38.5125 15.9364 37.4434 18.3613 35.6176 20.1871C34.5268 21.2779 33.2495 22.0703 31.8883 22.5693C29.5275 22.2381 27.123 22.2381 24.7622 22.5693C23.4008 22.0703 22.1237 21.2779 21.0329 20.1871C19.085 18.2392 18.0122 15.6494 18.0122 12.8947C18.0122 10.1399 19.085 7.55016 21.0329 5.60231C22.9807 3.65434 25.5706 2.58155 28.3253 2.58155C31.0799 2.58155 33.6698 3.65434 35.6176 5.60231C36.4004 6.38506 37.0472 7.27832 37.5402 8.257C37.7601 8.69376 38.2925 8.86961 38.7292 8.64956C39.1659 8.42975 39.3417 7.89734 39.1217 7.4607C38.5439 6.31306 37.7863 5.26666 36.8698 4.35012C34.5875 2.0678 31.553 0.810852 28.3254 0.810852C25.0978 0.810852 22.0632 2.0678 19.7809 4.35012C17.4986 6.63255 16.2416 9.66697 16.2416 12.8946C16.2416 16.1222 17.4986 19.1567 19.7809 21.4391C20.4393 22.0974 21.1555 22.6636 21.913 23.1379C21.9133 23.1379 21.9135 23.1378 21.9138 23.1378C21.3633 23.2808 20.817 23.4414 20.2767 23.622C19.813 23.7771 19.5628 24.2786 19.7178 24.7425C19.8727 25.2062 20.3745 25.4564 20.8381 25.3015C25.6663 23.6874 30.9845 23.6874 35.8126 25.3015C35.9058 25.3326 36.0004 25.3474 36.0934 25.3474C36.4637 25.3474 36.809 25.1131 36.9329 24.7425C37.088 24.2787 36.8378 23.7771 36.374 23.622C35.8338 23.4414 35.2875 23.2807 34.737 23.1378C34.7372 23.1378 34.7375 23.1379 34.7377 23.1379C35.4954 22.6636 36.2115 22.0974 36.8698 21.4391C37.4523 20.8566 37.9664 20.2206 38.4128 19.5447C38.6568 19.5921 38.8991 19.6417 39.1378 19.6935C39.4557 19.7626 39.7723 19.8367 40.0859 19.9145C40.0761 19.953 40.066 19.9914 40.0578 20.0305C39.626 22.0795 39.654 23.8916 40.1411 25.4164C40.5788 26.7869 41.3688 27.8973 42.4888 28.7167C43.809 29.6824 45.4028 30.0996 46.8465 30.0996C47.9331 30.0996 48.9348 29.8632 49.6705 29.4465C50.5027 28.9751 51.1999 27.982 51.7518 26.4908C52.0069 26.7886 52.2487 27.0936 52.4766 27.4058C53.4006 28.6717 54.106 30.0668 54.5732 31.5522C54.8475 32.4247 55.5286 33.1112 56.3948 33.3889L58.8866 34.1871C59.5405 34.3966 59.9797 34.9984 59.9797 35.6849V39.8167C59.9797 40.5032 59.5405 41.105 58.8866 41.3144L54.872 42.6004C54.2297 42.8063 53.6861 43.2477 53.3414 43.8434C51.7641 46.5693 49.2844 48.825 45.9705 50.5479C45.5877 50.7472 45.3225 51.1035 45.2426 51.5258L43.9568 58.3342C43.9213 58.5218 43.757 58.6579 43.566 58.6579H39.3853C39.1943 58.6579 39.03 58.5217 38.9945 58.3342L38.2823 54.5715C38.1421 53.8311 37.4478 53.3394 36.7004 53.4526C34.8995 53.7249 33.0439 53.8629 31.1853 53.8629C29.8025 53.8629 28.4374 53.7858 27.1277 53.6336C26.4035 53.5503 25.7289 54.0439 25.5936 54.759L24.9168 58.3342C24.8813 58.5218 24.717 58.6579 24.526 58.6579H20.3453C20.1543 58.6579 19.99 58.5217 19.954 58.3314L18.716 51.9009C18.6362 51.4866 18.376 51.1343 18.0016 50.9343C12.3527 47.9187 9.36688 42.8804 9.36688 36.3646C9.36688 33.0725 10.0871 30.1614 11.5076 27.7119C12.8331 25.426 14.769 23.536 17.2617 22.0942C17.6849 21.8493 17.8295 21.3078 17.5847 20.8844C17.34 20.4612 16.7984 20.3168 16.3751 20.5614C11.5418 23.3573 8.62666 27.6708 7.82406 33.1494V33.1492C7.73887 33.1415 7.65356 33.1341 7.56861 33.1254C7.58406 32.5343 7.47712 31.9378 7.24425 31.3589C6.73061 30.0821 5.67553 29.1606 4.55617 29.0113C3.67409 28.8932 2.83466 29.2677 2.25211 30.0373C1.40745 31.1535 1.54516 32.0368 1.80929 32.5812C2.2552 33.5 3.40141 34.1499 5.30352 34.5585C5.25124 34.6368 5.19374 34.7155 5.13076 34.7945C4.00689 36.204 2.68282 36.5156 1.82307 36.545C1.31977 36.562 0.916748 36.9661 0.916748 37.4697V37.474C0.916748 37.9708 1.30872 38.3759 1.80501 38.3986C1.86858 38.4016 1.93499 38.4031 2.00414 38.4031C3.09202 38.4031 4.838 38.0019 6.51543 35.8985C6.78027 35.5665 6.99604 35.2163 7.16191 34.8544C7.32896 34.8732 7.48948 34.8894 7.64323 34.9037C7.64323 34.9033 7.64323 34.9031 7.64335 34.9027C7.61317 35.3825 7.59641 35.8693 7.59641 36.3646C7.59641 40.0512 8.47529 43.3382 10.2084 46.1348C11.8065 48.7131 14.0945 50.8242 17.0112 52.4118L18.2148 58.6634C18.4083 59.6861 19.3043 60.4285 20.3453 60.4285H24.526C25.567 60.4285 26.4629 59.6861 26.6565 58.6634L27.2684 55.4306C28.5392 55.5653 29.855 55.6335 31.1851 55.6335C33.0101 55.6335 34.833 55.5063 36.6095 55.2554L37.2546 58.6636C37.4482 59.6864 38.3442 60.4286 39.385 60.4286H43.5658C44.6067 60.4286 45.5027 59.6862 45.6964 58.6631L46.9483 52.0343C50.4852 50.164 53.1512 47.7072 54.8738 44.7301C54.9979 44.5156 55.1891 44.3581 55.412 44.2867L59.4265 43.0008C60.8163 42.5554 61.7501 41.2758 61.7501 39.8164V35.6846C61.7501 34.2253 60.8163 32.9458 59.4265 32.5006ZM50.9709 21.9787C50.6302 24.8928 49.7161 27.3855 48.7977 27.9057C47.7538 28.497 45.3436 28.6112 43.5341 27.2875C41.7224 25.9622 41.1194 23.579 41.7901 20.3955C41.7901 20.3954 41.7901 20.3954 41.7901 20.3954C41.8575 20.0757 42.0846 19.7991 42.3977 19.6558C46.83 17.6269 49.3853 16.9633 50.3347 16.9633C50.478 16.9633 50.5847 16.9784 50.6557 17.0062C50.9409 17.3101 51.3149 19.0378 50.9709 21.9787ZM3.40248 31.8081C3.31087 31.6191 3.52712 31.287 3.66423 31.1057C3.88154 30.8187 4.08174 30.76 4.233 30.76C4.26496 30.76 4.29478 30.7626 4.32211 30.7663C4.72917 30.8206 5.29948 31.2685 5.60163 32.0195C5.6728 32.1963 5.76524 32.4892 5.78686 32.8545C4.56128 32.6005 3.6091 32.2345 3.40248 31.8081Z" fill="#FFC80A"/>
<path d="M29.185 11.8799V8.71186C30.2775 8.78992 30.6834 9.2893 31.0579 9.2893C31.5262 9.2893 31.7447 8.6963 31.7447 8.39973C31.7447 7.63492 30.2463 7.30723 29.185 7.27598V6.85442C29.185 6.66717 28.9508 6.49548 28.7168 6.49548C28.4513 6.49548 28.2641 6.66717 28.2641 6.85442V7.30699C26.7814 7.46311 25.2987 8.24349 25.2987 10.21C25.2987 12.2078 26.8595 12.7696 28.2641 13.269V16.9367C26.6721 16.8118 26.2508 15.7193 25.7357 15.7193C25.3455 15.7193 25.0178 16.2344 25.0178 16.609C25.0178 17.3737 26.3288 18.4194 28.2641 18.4507V18.9345C28.2641 19.1217 28.4515 19.2934 28.7168 19.2934C28.951 19.2934 29.185 19.1217 29.185 18.9345V18.4038C30.8707 18.1697 32.0255 17.1084 32.0255 15.1887C32.0255 13.0662 30.5428 12.3793 29.185 11.8799ZM28.3577 11.5835C27.5305 11.2714 26.8595 10.9437 26.8595 10.0541C26.8595 9.24249 27.4837 8.8523 28.3577 8.74311V11.5835ZM29.0913 16.9055V13.6124C29.856 13.9401 30.4647 14.3771 30.4647 15.3603C30.4647 16.2501 29.934 16.7495 29.0913 16.9055Z" fill="#FFC80A"/>
</g>
<defs>
<clipPath id="clip0">
<rect width="60.8333" height="60.8333" fill="white" transform="translate(0.916748 0.203125)"/>
</clipPath>
</defs>
</svg>
