<svg width="62" height="62" viewBox="0 0 62 62" fill="none" xmlns="http://www.w3.org/2000/svg">
<g clip-path="url(#clip0)">
<path d="M5.2019 17.9315H14.5999C15.0921 17.9315 15.4911 17.5327 15.4911 17.0404C15.4911 16.5482 15.0921 16.1493 14.5999 16.1493H5.2019C4.70977 16.1493 4.31079 16.5482 4.31079 17.0404C4.31079 17.5327 4.70965 17.9315 5.2019 17.9315Z" fill="#FFC80A"/>
<path d="M14.2777 22.2216H10.5652C10.0731 22.2216 9.67407 22.6204 9.67407 23.1127C9.67407 23.6049 10.0731 24.0038 10.5652 24.0038H14.2777C14.7698 24.0038 15.1688 23.6049 15.1688 23.1127C15.1688 22.6204 14.7698 22.2216 14.2777 22.2216Z" fill="#FFC80A"/>
<path d="M1.47437 28.4011H10.5651C11.0573 28.4011 11.4563 28.0023 11.4563 27.51C11.4563 27.0178 11.0573 26.6189 10.5651 26.6189H1.47437C0.982233 26.6189 0.583252 27.0178 0.583252 27.51C0.583252 28.0023 0.982233 28.4011 1.47437 28.4011Z" fill="#FFC80A"/>
<path d="M15.4911 44.1991C15.4911 43.7068 15.0921 43.308 14.5999 43.308H5.2019C4.70977 43.308 4.31079 43.7068 4.31079 44.1991C4.31079 44.6913 4.70977 45.0902 5.2019 45.0902H14.5999C15.0921 45.0902 15.4911 44.6913 15.4911 44.1991Z" fill="#FFC80A"/>
<path d="M14.2777 37.2358H10.5652C10.0731 37.2358 9.67407 37.6347 9.67407 38.127C9.67407 38.6192 10.0731 39.0181 10.5652 39.0181H14.2777C14.7698 39.0181 15.1688 38.6192 15.1688 38.127C15.1688 37.6347 14.7698 37.2358 14.2777 37.2358Z" fill="#FFC80A"/>
<path d="M11.4563 33.7296C11.4563 33.2373 11.0573 32.8384 10.5651 32.8384H1.47437C0.982233 32.8384 0.583252 33.2373 0.583252 33.7296C0.583252 34.2218 0.982233 34.6207 1.47437 34.6207H10.5651C11.0573 34.6207 11.4563 34.2218 11.4563 33.7296Z" fill="#FFC80A"/>
<path d="M38.5481 19.9063C39.0403 19.9063 39.4392 19.5074 39.4392 19.0152V17.655C39.4392 17.1627 39.0403 16.7639 38.5481 16.7639C38.0558 16.7639 37.657 17.1627 37.657 17.655V19.0152C37.657 19.5074 38.0558 19.9063 38.5481 19.9063Z" fill="#FFC80A"/>
<path d="M48.3456 20.8221C47.9975 20.4742 47.4334 20.4742 47.0854 20.8221L46.1236 21.7839C45.7755 22.132 45.7755 22.6961 46.1236 23.0442C46.4718 23.3922 47.0358 23.392 47.3838 23.0442L48.3456 22.0823C48.6935 21.7343 48.6935 21.1702 48.3456 20.8221Z" fill="#FFC80A"/>
<path d="M50.1528 29.7287C49.6606 29.7287 49.2617 30.1276 49.2617 30.6198C49.2617 31.1121 49.6606 31.5109 50.1528 31.5109H51.5129C52.0052 31.5109 52.404 31.1121 52.404 30.6198C52.404 30.1276 52.0052 29.7287 51.5129 29.7287H50.1528Z" fill="#FFC80A"/>
<path d="M47.3838 38.1954C47.0357 37.8475 46.4716 37.8475 46.1236 38.1954C45.7755 38.5435 45.7755 39.1076 46.1236 39.4556L47.0854 40.4175C47.4336 40.7655 47.9976 40.7653 48.3456 40.4175C48.6936 40.0693 48.6936 39.5052 48.3456 39.1572L47.3838 38.1954Z" fill="#FFC80A"/>
<path d="M37.657 42.2244V43.5845C37.657 44.0768 38.0558 44.4756 38.5481 44.4756C39.0403 44.4756 39.4392 44.0768 39.4392 43.5845V42.2244C39.4392 41.7322 39.0403 41.3333 38.5481 41.3333C38.0558 41.3333 37.657 41.7323 37.657 42.2244Z" fill="#FFC80A"/>
<path d="M29.7123 38.1954L28.7505 39.1572C28.4025 39.5053 28.4025 40.0694 28.7505 40.4175C29.0986 40.7655 29.6628 40.7653 30.0107 40.4175L30.9725 39.4556C31.3205 39.1075 31.3205 38.5434 30.9725 38.1954C30.6246 37.8475 30.0603 37.8475 29.7123 38.1954Z" fill="#FFC80A"/>
<path d="M25.5833 29.7287C25.0911 29.7287 24.6921 30.1276 24.6921 30.6198C24.6921 31.1121 25.0911 31.5109 25.5833 31.5109H26.9434C27.4356 31.5109 27.8346 31.1121 27.8346 30.6198C27.8346 30.1276 27.4356 29.7287 26.9434 29.7287H25.5833Z" fill="#FFC80A"/>
<path d="M30.9725 21.7839L30.0107 20.8221C29.6626 20.4742 29.0984 20.4742 28.7505 20.8221C28.4025 21.1702 28.4025 21.7343 28.7505 22.0823L29.7123 23.0442C30.0604 23.3922 30.6246 23.392 30.9725 23.0442C31.3205 22.6961 31.3205 22.132 30.9725 21.7839Z" fill="#FFC80A"/>
<path d="M43.3399 30.6198C43.3399 30.1276 42.941 29.7287 42.4488 29.7287H39.4392V23.1126C39.4392 22.6204 39.0403 22.2215 38.5481 22.2215C38.0558 22.2215 37.657 22.6204 37.657 23.1126V30.6198C37.657 31.1121 38.0558 31.5109 38.5481 31.5109H42.4488C42.9409 31.5109 43.3399 31.1121 43.3399 30.6198Z" fill="#FFC80A"/>
<path d="M55.445 30.4727C55.9363 30.4429 56.3103 30.0205 56.2805 29.5293C55.7136 20.1782 47.9246 12.8531 38.5479 12.8531C28.7514 12.8531 20.7812 20.8233 20.7812 30.6199C20.7812 40.4165 28.7514 48.3866 38.5479 48.3866C47.3247 48.3866 54.8137 41.9561 56.1165 33.2784C56.1896 32.7917 55.8543 32.338 55.3675 32.2649C54.882 32.1921 54.4271 32.527 54.354 33.0139C53.1837 40.8099 46.4521 46.6045 38.5479 46.6045C29.7341 46.6045 22.5635 39.4339 22.5635 30.62C22.5635 21.8062 29.7341 14.6355 38.5479 14.6355C46.9839 14.6355 53.9915 21.2251 54.5014 29.6374C54.5312 30.1284 54.9532 30.5012 55.445 30.4727Z" fill="#FFC80A"/>
<path d="M38.548 7.75134C35.4135 7.75134 32.3425 8.40162 29.5159 9.61769H13.7932C13.3011 9.61769 12.9021 10.0166 12.9021 10.5088C12.9021 11.0011 13.3011 11.3999 13.7932 11.3999H26.1634C24.4909 12.4764 22.9511 13.7748 21.5935 15.2738C21.2632 15.6384 21.291 16.2019 21.6558 16.5324C22.0207 16.8628 22.584 16.8349 22.9145 16.4701C26.907 12.0618 32.6052 9.53357 38.548 9.53357C50.175 9.53357 59.6344 18.9928 59.6344 30.6198C59.6344 42.2467 50.1751 51.706 38.548 51.706C26.921 51.706 17.4618 42.2468 17.4618 30.6198C17.4618 26.5482 18.6248 22.5965 20.8251 19.1915C21.0921 18.7781 20.9736 18.2266 20.5602 17.9595C20.1469 17.6925 19.5953 17.8108 19.3281 18.2243C16.9411 21.918 15.6795 26.2043 15.6795 30.6198C15.6795 38.6714 19.8625 45.7637 26.1691 49.8397H13.7933C13.3012 49.8397 12.9022 50.2386 12.9022 50.7308C12.9022 51.2231 13.3012 51.6219 13.7933 51.6219H29.5037C32.2792 52.8218 35.3371 53.4883 38.5481 53.4883C51.1577 53.4883 61.4166 43.2295 61.4166 30.6198C61.4166 18.0101 51.1577 7.75134 38.548 7.75134Z" fill="#FFC80A"/>
</g>
<defs>
<clipPath id="clip0">
<rect width="60.8333" height="60.8333" fill="white" transform="translate(0.583252 0.203125)"/>
</clipPath>
</defs>
</svg>
