<svg width="62" height="62" viewBox="0 0 62 62" fill="none" xmlns="http://www.w3.org/2000/svg">
<g clip-path="url(#clip0)">
<path d="M56.8248 27.6925L55.2494 21.3912C55.6801 21.2997 56.0033 20.9176 56.0033 20.4598V19.4438C56.0033 17.2379 54.2086 15.4433 52.0028 15.4433H44.8273V13.3476C44.8273 12.2621 43.9443 11.3791 42.8588 11.3791H6.28248C5.19699 11.3791 4.31395 12.2621 4.31395 13.3476V30.6198C4.31395 31.1458 4.74038 31.5723 5.26649 31.5723C5.79249 31.5723 6.21903 31.1459 6.21903 30.6198V13.3476C6.21903 13.3126 6.24743 13.2842 6.28248 13.2842H42.8586C42.8937 13.2842 42.9221 13.3126 42.9221 13.3476V30.62C42.9221 31.146 43.3485 31.5725 43.8746 31.5725C44.4006 31.5725 44.8272 31.1461 44.8272 30.62V29.5402H56.0634C56.0643 29.5402 56.0651 29.5405 56.0659 29.5405C56.0668 29.5405 56.0677 29.5403 56.0685 29.5403C57.4512 29.5413 58.6252 30.4488 59.0284 31.6993H56.0666C55.5406 31.6993 55.1141 32.1258 55.1141 32.6519V34.6838C55.1141 36.3295 56.4529 37.6684 58.0986 37.6684H59.1781V41.8593H56.6875C55.8694 39.4969 53.6236 37.7953 50.9865 37.7953C48.3494 37.7953 46.1036 39.4969 45.2856 41.8593H44.8269V34.6837C44.8269 34.1577 44.4005 33.7312 43.8744 33.7312C43.3484 33.7312 42.9218 34.1576 42.9218 34.6837V41.8591H23.1596C22.3414 39.4967 20.0957 37.795 17.4586 37.795C14.8215 37.795 12.5756 39.4967 11.7576 41.8591H6.28248C6.24743 41.8591 6.21903 41.8307 6.21903 41.7956V39.7001H10.3466C10.8725 39.7001 11.2991 39.2737 11.2991 38.7476C11.2991 38.2214 10.8727 37.795 10.3466 37.795H1.20254C0.676546 37.795 0.25 38.2214 0.25 38.7476C0.25 39.2737 0.676427 39.7001 1.20254 39.7001H4.31407V41.7956C4.31407 42.8811 5.1971 43.7642 6.2826 43.7642H11.4278C11.4275 43.7853 11.4261 43.8063 11.4261 43.8276C11.4261 47.154 14.1324 49.8601 17.4586 49.8601C20.7848 49.8601 23.4911 47.154 23.4911 43.8276C23.4911 43.8062 23.4896 43.7853 23.4894 43.7642H44.9557C44.9555 43.7853 44.9541 43.8063 44.9541 43.8276C44.9541 47.154 47.6603 49.8601 50.9865 49.8601C54.3128 49.8601 57.019 47.154 57.019 43.8276C57.019 43.8062 57.0176 43.7853 57.0174 43.7642H60.1307C60.6567 43.7642 61.0832 43.3377 61.0832 42.8116V32.6516C61.0833 30.1432 59.2325 28.0591 56.8248 27.6925ZM44.8273 17.3482H52.0028C53.1582 17.3482 54.0983 18.2883 54.0983 19.4438V19.5072H44.8273V17.3482ZM44.8273 27.6353V21.4122H53.2911L54.8468 27.6353H44.8273ZM17.4586 47.9554C15.1827 47.9554 13.3311 46.1039 13.3311 43.8279C13.3311 41.5518 15.1827 39.7003 17.4586 39.7003C19.7345 39.7003 21.5861 41.5518 21.5861 43.8279C21.5861 46.1039 19.7345 47.9554 17.4586 47.9554ZM50.9868 47.9554C48.7109 47.9554 46.8593 46.1039 46.8593 43.8279C46.8593 41.5518 48.7109 39.7003 50.9868 39.7003C53.2627 39.7003 55.1143 41.5518 55.1143 43.8279C55.1143 46.1039 53.2627 47.9554 50.9868 47.9554ZM59.1784 35.7633H58.0988C57.5036 35.7633 57.0193 35.279 57.0193 34.6837V33.6042H59.1782V35.7633H59.1784Z" fill="#FFC80A"/>
<path d="M17.4585 41.8593C16.373 41.8593 15.49 42.7424 15.49 43.8278C15.49 44.9133 16.373 45.7964 17.4585 45.7964C18.544 45.7964 19.427 44.9133 19.427 43.8278C19.427 42.7424 18.544 41.8593 17.4585 41.8593Z" fill="#FFC80A"/>
<path d="M50.9868 41.8593C49.9013 41.8593 49.0183 42.7424 49.0183 43.8278C49.0183 44.9133 49.9013 45.7964 50.9868 45.7964C52.0723 45.7964 52.9554 44.9133 52.9554 43.8278C52.9554 42.7424 52.0723 41.8593 50.9868 41.8593Z" fill="#FFC80A"/>
<path d="M39.8106 37.7954H25.5866C25.0606 37.7954 24.634 38.2218 24.634 38.748C24.634 39.2741 25.0605 39.7005 25.5866 39.7005H39.8106C40.3366 39.7005 40.7632 39.2741 40.7632 38.748C40.7632 38.2218 40.3367 37.7954 39.8106 37.7954Z" fill="#FFC80A"/>
<path d="M15.4266 33.7313H3.23452C2.70853 33.7313 2.28198 34.1578 2.28198 34.6839C2.28198 35.21 2.70841 35.6364 3.23452 35.6364H15.4266C15.9526 35.6364 16.3792 35.21 16.3792 34.6839C16.3792 34.1578 15.9526 33.7313 15.4266 33.7313Z" fill="#FFC80A"/>
<path d="M33.3723 20.8021C33.0004 20.4302 32.3972 20.4302 32.0253 20.8022L23.5547 29.2727L19.1482 24.8662C18.7762 24.4942 18.1731 24.4942 17.8012 24.8662C17.4292 25.2382 17.4292 25.8412 17.8012 26.2132L22.8813 31.2932C23.0672 31.4793 23.311 31.5722 23.5547 31.5722C23.7984 31.5722 24.0423 31.4793 24.2282 31.2932L33.3722 22.1492C33.7442 21.7771 33.7442 21.1741 33.3723 20.8021Z" fill="#FFC80A"/>
</g>
<defs>
<clipPath id="clip0">
<rect width="60.8333" height="60.8333" fill="white" transform="translate(0.25 0.203125)"/>
</clipPath>
</defs>
</svg>
