<svg width="62" height="58" viewBox="0 0 62 58" fill="none" xmlns="http://www.w3.org/2000/svg">
<path d="M29.9733 21.9584C30.3697 22.3348 31.0287 22.2587 31.3299 21.8044L37.2609 12.8533C37.5329 12.443 37.4206 11.8898 37.0103 11.6178C36.6005 11.3463 36.0473 11.4586 35.7753 11.8684L30.4305 19.9349L27.4606 17.1149C27.1037 16.7761 26.5398 16.7909 26.2005 17.1478C25.8617 17.5047 25.8765 18.0686 26.2334 18.4074C26.2334 18.4074 29.9701 21.9557 29.9733 21.9584Z" fill="#FFC80A"/>
<path d="M30.5813 35.5503C30.7517 35.6282 30.9401 35.6695 31.1276 35.6695H31.135C31.3258 35.6686 31.517 35.625 31.6878 35.5433C45.2383 29.099 47.5347 15.1948 47.9153 11.0869C48.0026 10.1489 47.4744 9.2754 46.6014 8.91338C43.9039 7.79346 42.0702 5.28906 41.8158 2.37762C41.7374 1.4814 40.9716 0.782898 40.0694 0.782898H40.0587L21.8029 0.89011C20.8826 0.895215 20.1349 1.59465 20.0643 2.51686C19.8397 5.42922 18.0329 7.95172 15.3488 9.09996C14.4847 9.4694 13.9695 10.3475 14.0679 11.285C14.4967 15.3883 16.9561 29.2651 30.5813 35.5503ZM16.0497 10.7383C19.3408 9.33109 21.5579 6.24143 21.8396 2.67187L40.0429 2.56513C40.3664 6.1268 42.6151 9.18814 45.9182 10.5592C46.0658 10.6209 46.1554 10.7666 46.141 10.9226C45.7836 14.7725 43.6454 27.7535 31.1243 33.8367C18.5313 27.9015 16.2427 14.9456 15.8399 11.0999C15.8236 10.9444 15.9081 10.7991 16.0497 10.7383Z" fill="#FFC80A"/>
<path d="M18.2746 15.6784C18.3823 16.0748 18.8849 16.4377 19.3685 16.3045C19.8429 16.1736 20.1237 15.6858 19.9946 15.211C19.7677 14.3747 19.5769 13.5267 19.427 12.6867C21.8479 11.1091 23.6445 8.75464 24.5259 6.00472L37.395 5.92907C38.3084 8.66785 40.1324 11.0019 42.5718 12.5507C42.4321 13.3931 42.2511 14.2438 42.0334 15.0834C41.91 15.5601 42.1964 16.0465 42.6725 16.1699C43.1497 16.2934 43.6356 16.007 43.759 15.5304C44.0143 14.5446 44.2222 13.5439 44.3763 12.5563C44.4627 12.0044 44.2102 11.4619 43.734 11.1741C41.4616 9.8017 39.782 7.64864 39.0046 5.11175C38.8296 4.54134 38.2917 4.14498 37.6948 4.14498H37.6865L24.213 4.22389C23.6125 4.2276 23.075 4.63185 22.9065 5.20643C22.1593 7.75214 20.5047 9.92469 18.2486 11.324C17.7757 11.6169 17.5302 12.1622 17.6225 12.7136C17.7887 13.6989 18.0077 14.6963 18.2746 15.6784Z" fill="#FFC80A"/>
<path d="M41.9579 18.3207C41.503 18.1322 40.9823 18.3494 40.7943 18.8043C38.735 23.7954 35.475 27.5901 31.1021 30.0875C26.6952 27.6384 23.3879 23.8757 21.2706 18.9003C21.0775 18.4478 20.554 18.2371 20.1014 18.4297C19.6485 18.6223 19.4378 19.1459 19.6304 19.5984C21.9412 25.0277 25.5818 29.1208 30.4509 31.763C30.656 31.8749 30.8807 31.9301 31.1048 31.9301C31.3346 31.9301 31.5639 31.8721 31.7727 31.7556C36.6051 29.0595 40.1947 24.9307 42.4419 19.4837C42.6299 19.0289 42.4132 18.5082 41.9579 18.3207Z" fill="#FFC80A"/>
<path d="M6.30073 46.381C4.56259 46.381 3.14795 47.7951 3.14795 49.5337C3.14795 51.2723 4.56259 52.6865 6.30073 52.6865C8.03933 52.6865 9.45397 51.2723 9.45397 49.5337C9.45397 47.7951 8.03979 46.381 6.30073 46.381ZM6.30073 50.9043C5.54514 50.9043 4.93018 50.2898 4.93018 49.5337C4.93018 48.7781 5.54514 48.1632 6.30073 48.1632C7.05678 48.1632 7.67175 48.7781 7.67175 49.5337C7.67175 50.2898 7.05678 50.9043 6.30073 50.9043Z" fill="#FFC80A"/>
<path d="M60.7775 37.6569C59.6353 35.9786 57.3355 35.534 55.6513 36.6655L44.0018 44.4623L41.515 44.3226L41.4515 43.6858C41.2036 41.1921 39.2975 39.2052 36.8163 38.8543C36.8005 38.852 36.7852 38.8501 36.7694 38.8488L24.2168 37.7488C23.7921 37.6824 22.4327 37.2921 18.6974 35.1497C16.756 34.0363 14.5686 33.4079 12.3464 33.3225V30.9912C12.3464 29.8211 11.395 28.8697 10.2249 28.8697H2.70475C1.53516 28.8697 0.583252 29.8216 0.583252 30.9912V53.9517C0.583252 55.1213 1.53516 56.0732 2.70475 56.0732H10.2249C11.3945 56.0732 12.3464 55.1213 12.3464 53.9517V53.3191L23.3192 57.4744C23.3433 57.4837 24.2344 57.8169 25.8728 57.6624C25.8774 57.6619 44.1048 55.0341 44.1048 55.0341C44.1095 55.0336 44.1137 55.0327 44.1183 55.0317C45.6759 54.7834 47.1448 54.1249 48.3669 53.1284C48.378 53.1191 48.3887 53.1098 48.3994 53.1005L60.1746 42.5097C61.5623 41.2775 61.8217 39.1913 60.7775 37.6569ZM58.9869 41.181L47.2242 51.7606C46.2505 52.5501 45.0818 53.0722 43.8435 53.2709L25.6249 55.8973C25.6207 55.8978 25.6147 55.8987 25.6091 55.8997C25.6064 55.9001 25.6031 55.9006 25.6003 55.901C25.0554 55.9869 24.4878 55.9507 23.9128 55.7934L12.3464 51.4135V41.2367C12.3464 40.7442 11.9473 40.3455 11.4553 40.3455C10.9629 40.3455 10.5642 40.7442 10.5642 41.2367V53.9517C10.5642 54.1388 10.412 54.291 10.2249 54.291H2.70475C2.51771 54.291 2.36548 54.1388 2.36548 53.9517V30.9912C2.36548 30.8041 2.51771 30.6519 2.70475 30.6519H10.2249C10.412 30.6519 10.5642 30.8041 10.5642 30.9912V37.2113C10.5642 37.7038 10.9633 38.1024 11.4553 38.1024C11.9477 38.1024 12.3464 37.7033 12.3464 37.2113V35.1065C14.2581 35.191 16.1387 35.7368 17.8105 36.6962C22.3157 39.2799 23.574 39.4581 23.9875 39.5166C24.0033 39.5189 24.0186 39.5203 24.0344 39.5222L36.5884 40.6222C38.2435 40.8668 39.5124 42.196 39.6781 43.8622L39.7254 44.337L22.9182 45.3748C22.9066 45.3738 22.895 45.3729 22.8847 45.372C22.3399 45.3228 21.8479 45.0652 21.4984 44.6466C21.1833 44.2683 20.6212 44.2172 20.2434 44.5328C19.8652 44.848 19.8141 45.41 20.1297 45.7878C20.7837 46.5722 21.7063 47.0414 22.726 47.1472C23.2765 47.2048 40.7056 46.0621 40.7056 46.0621L44.1995 46.2585C44.3926 46.2696 44.5843 46.2167 44.7449 46.109L56.644 38.1456C57.5179 37.5585 58.7112 37.7887 59.3039 38.6594C59.8455 39.4558 59.7109 40.5382 58.9869 41.181Z" fill="#FFC80A"/>
</svg>
