<svg width="62" height="54" viewBox="0 0 62 54" fill="none" xmlns="http://www.w3.org/2000/svg">
<path d="M46.9386 41.9886C47.4308 41.9886 47.8297 41.5897 47.8297 41.0975V36.78C47.8297 36.2877 47.4308 35.8889 46.9386 35.8889H16.3769C15.8847 35.8889 15.4858 36.2877 15.4858 36.78V41.0975C15.4858 41.5897 15.8847 41.9886 16.3769 41.9886H46.9386ZM35.8303 40.2064H32.549V37.6711H35.8303V40.2064ZM37.6125 37.6711H40.894V40.2064H37.6125V37.6711ZM30.7668 40.2064H27.4853V37.6711H30.7668V40.2064ZM25.7031 40.2064H22.4218V37.6711H25.7031V40.2064ZM46.0474 40.2064H42.6762V37.6711H46.0474V40.2064ZM17.268 37.6711H20.6394V40.2064H17.268V37.6711Z" fill="#FFC80A"/>
<path d="M60.1922 51.8505H57.6244V17.986H57.9989C58.4911 17.986 58.89 17.5872 58.89 17.0949C58.89 16.6027 58.4911 16.2038 57.9989 16.2038H57.6244V13.05H57.9989C58.4911 13.05 58.89 12.6511 58.89 12.1589C58.89 11.6666 58.4911 11.2678 57.9989 11.2678C56.5349 11.2678 48.3452 11.2678 46.6825 11.2678C46.1902 11.2678 45.7914 11.6666 45.7914 12.1589C45.7914 12.6511 46.1902 13.05 46.6825 13.05H47.057V16.2038H46.6825C46.1902 16.2038 45.7914 16.6027 45.7914 17.0949C45.7914 17.5872 46.1902 17.986 46.6825 17.986H47.057V21.8658L40.9236 15.7325C40.3627 15.1713 39.6168 14.8624 38.8232 14.8624H34.9062V7.74429H35.4237C35.9159 7.74429 36.3148 7.34543 36.3148 6.85318C36.3148 6.36093 35.9159 5.96207 35.4237 5.96207H34.9062V2.50894H35.4237C35.9159 2.50894 36.3148 2.11008 36.3148 1.61783C36.3148 1.12558 35.9159 0.726715 35.4237 0.726715C33.1714 0.726715 21.0905 0.726715 18.5825 0.726715C18.0902 0.726715 17.6913 1.12558 17.6913 1.61783C17.6913 2.11008 18.0902 2.50894 18.5825 2.50894H19.1V5.96195H18.5825C18.0902 5.96195 17.6913 6.36081 17.6913 6.85306C17.6913 7.34531 18.0902 7.74417 18.5825 7.74417H19.1V11.7424C19.1 12.2347 19.4989 12.6335 19.9911 12.6335C20.4834 12.6335 20.8822 12.2347 20.8822 11.7424V7.74429H33.1239V31.8855H20.8824V15.3055C20.8824 14.8132 20.4835 14.4143 19.9912 14.4143C19.499 14.4143 19.1001 14.8132 19.1001 15.3055V31.8855H15.6842V27.8566H16.1135C16.6057 27.8566 17.0046 27.4577 17.0046 26.9655C17.0046 26.4732 16.6057 26.0744 16.1135 26.0744H15.6842V25.7712C15.6842 25.2789 15.2853 24.8801 14.7931 24.8801C14.3008 24.8801 13.902 25.2789 13.902 25.7712V26.0744H13.4728C12.9806 26.0744 12.5817 26.4732 12.5817 26.9655C12.5817 27.4577 12.9806 27.8566 13.4728 27.8566H13.902V31.8855H11.9753C11.0899 31.8855 10.3694 32.6059 10.3694 33.4914V39.3265H8.60864C6.78317 39.3265 5.06094 40.1319 3.8836 41.5363C3.56744 41.9134 3.61686 42.4754 3.99398 42.7916C4.3711 43.1078 4.9331 43.0583 5.24926 42.6812C6.08715 41.6819 7.31142 41.1088 8.60852 41.1088H10.3692V43.4851H8.60864C7.50224 43.4851 6.60197 44.3852 6.60197 45.4917V51.8506H4.22567V45.5116C4.22567 45.0193 3.82681 44.6205 3.33456 44.6205C2.84231 44.6205 2.44345 45.0193 2.44345 45.5116V51.8506H1.14111C0.648862 51.8506 0.25 52.2495 0.25 52.7417C0.25 53.234 0.648862 53.6328 1.14111 53.6328H60.1922C60.6845 53.6328 61.0833 53.234 61.0833 52.7417C61.0833 52.2495 60.6845 51.8505 60.1922 51.8505ZM20.8824 5.96207V2.50894H33.124V5.96195L20.8824 5.96207ZM48.8392 13.05H55.842V16.2038H48.8392V13.05ZM38.8232 16.6446C39.1406 16.6446 39.4389 16.7682 39.6632 16.9927L47.057 24.3865V27.7469L38.5921 19.282C38.4249 19.1149 38.1984 19.021 37.9619 19.021H34.9062V16.6447L38.8232 16.6446ZM8.3842 45.4916C8.3842 45.3679 8.48496 45.2672 8.60864 45.2672H10.3694V51.8504H8.3842V45.4916ZM12.1516 33.6676H39.1821C39.6744 33.6676 40.0733 33.2688 40.0733 32.7765C40.0733 32.2843 39.6744 31.8854 39.1821 31.8854H34.9063V20.8031H37.5929L47.057 30.2674V31.8854H42.7451C42.2528 31.8854 41.8539 32.2843 41.8539 32.7765C41.8539 33.2688 42.2528 33.6676 42.7451 33.6676H51.1639V51.8505H39.1201V45.6647C39.1201 45.1725 38.7213 44.7736 38.229 44.7736H25.0864C24.5941 44.7736 24.1953 45.1725 24.1953 45.6647V51.8505H12.1516C12.1516 51.067 12.1516 34.4624 12.1516 33.6676ZM25.9775 51.8505V46.5559H37.3379V51.8505H25.9775ZM52.9463 51.8505V33.4913C52.9463 32.6059 52.2259 31.8854 51.3404 31.8854H48.8392C48.8392 29.114 48.8392 20.8696 48.8392 17.986H55.842V51.8505H52.9463Z" fill="#FFC80A"/>
</svg>
