<svg width="26" height="26" viewBox="0 0 26 26" fill="none" xmlns="http://www.w3.org/2000/svg">
<g clip-path="url(#clip0)">
<path d="M23.8584 11.3381V3.79668C23.8584 3.59168 23.7264 3.40989 23.5314 3.34661L13.3052 0.023339C13.2017 -0.0104807 13.0947 -0.00636752 12.9999 0.0280616C12.9043 -0.00606284 12.7975 -0.0101761 12.694 0.023339L2.46819 3.34661C2.27314 3.40984 2.14111 3.59133 2.14111 3.79668L2.14172 11.3202C2.13761 11.4302 1.85024 22.3696 12.7552 25.9759C12.8032 25.9921 12.8538 26 12.9041 26H13.0962C13.1465 26 13.1971 25.9921 13.245 25.9759C24.1497 22.3696 23.8623 11.4298 23.8584 11.3381ZM13.0194 25.0534H12.9805C2.83381 21.6522 3.07207 11.7752 3.08741 11.3381V4.14026L12.9861 0.923423C12.9909 0.92195 12.9953 0.920173 13 0.9187C13.0041 0.920173 13.0088 0.92195 13.0132 0.923423L22.9122 4.14052L22.9128 11.3563C22.9166 11.4587 23.1846 21.6442 13.0194 25.0534Z" fill="#A5A9AF"/>
<path d="M20.9046 5.1415L13.2305 2.55911C13.164 2.53707 13.0952 2.53174 13.0314 2.53707C12.9672 2.53209 12.8993 2.53707 12.8322 2.55911L5.15901 5.14145C4.96691 5.20645 4.83691 5.38677 4.83691 5.59004L4.83752 11.4663C4.84016 11.5507 5.22376 19.9566 12.8605 22.9149C12.9155 22.936 12.9737 22.9467 13.0314 22.9467C13.089 22.9467 13.1472 22.936 13.2022 22.9149C20.8393 19.9566 21.2234 11.5507 21.2266 11.4495V5.59004C21.2264 5.38682 21.0967 5.2065 20.9046 5.1415ZM13.0314 21.9654C6.14944 19.1771 5.78585 11.5107 5.78321 11.4498V5.93007L13.0314 3.49068L20.2804 5.93007L20.2807 11.4327C20.2775 11.5104 19.9133 19.1771 13.0314 21.9654Z" fill="#A5A9AF"/>
<path d="M18.4481 9.50508C18.2469 9.33685 17.9483 9.36508 17.7816 9.56511L12.3054 16.1241L8.77297 12.4146C8.59148 12.2245 8.29295 12.2186 8.10409 12.3978C7.91468 12.5781 7.90732 12.8778 8.08734 13.0667L11.9857 17.1607C12.0754 17.2545 12.1992 17.3077 12.3287 17.3077C12.3336 17.3077 12.3387 17.3077 12.3439 17.3071C12.479 17.303 12.6055 17.2409 12.6919 17.1377L18.5082 10.1713C18.6754 9.97074 18.6487 9.67246 18.4481 9.50508Z" fill="#A5A9AF"/>
</g>
<defs>
<clipPath id="clip0">
<rect width="26" height="26" fill="white"/>
</clipPath>
</defs>
</svg>
