<svg width="20" height="20" viewBox="0 0 20 20" fill="none" xmlns="http://www.w3.org/2000/svg">
<path d="M14.5268 13.9366C15.8681 12.4551 16.6931 10.4978 16.6931 8.34656C16.6931 3.74418 12.9487 0 8.34656 0C3.74439 0 0 3.74418 0 8.34656C0 12.9489 3.74439 16.6931 8.34656 16.6931C10.4978 16.6931 12.455 15.8681 13.9366 14.5268L19.4099 20L20 19.4099L14.5268 13.9366ZM8.34656 15.8585C4.20439 15.8585 0.834645 12.4885 0.834645 8.34656C0.834645 4.20461 4.20439 0.834645 8.34656 0.834645C12.4887 0.834645 15.8585 4.20461 15.8585 8.34656C15.8585 12.4885 12.4887 15.8585 8.34656 15.8585Z" fill="#525A68"/>
</svg>
