<svg width="198" height="21" viewBox="0 0 198 21" fill="none" xmlns="http://www.w3.org/2000/svg">
<path d="M0.746 16V2.1484H11.707V16H8.7776V4.5928H3.6754V16H0.746ZM20.8661 5.2136C22.0559 5.2136 23.0195 5.6792 23.7567 6.6104C24.4939 7.52867 24.8625 8.88667 24.8625 10.6844C24.8625 12.4821 24.4809 13.8531 23.7179 14.7972C22.9548 15.7284 21.9783 16.194 20.7885 16.194C20.0254 16.194 19.4175 16.0582 18.9649 15.7866C18.5122 15.5021 18.1436 15.1852 17.8591 14.836H17.7039C17.8073 15.3792 17.8591 15.8965 17.8591 16.388V20.656H14.9685V5.4076H17.3159L17.7233 6.785H17.8591C18.1436 6.3582 18.5251 5.9896 19.0037 5.6792C19.4822 5.3688 20.103 5.2136 20.8661 5.2136ZM19.9349 7.5222C19.1847 7.5222 18.6545 7.755 18.3441 8.2206C18.0466 8.6862 17.8849 9.39753 17.8591 10.3546V10.665C17.8591 11.6867 18.0078 12.4757 18.3053 13.0318C18.6157 13.575 19.1718 13.8466 19.9737 13.8466C20.6333 13.8466 21.1183 13.575 21.4287 13.0318C21.752 12.4757 21.9137 11.6803 21.9137 10.6456C21.9137 8.56333 21.2541 7.5222 19.9349 7.5222ZM36.8674 10.6844C36.8674 12.4433 36.4018 13.8013 35.4706 14.7584C34.5524 15.7155 33.2978 16.194 31.707 16.194C30.7241 16.194 29.8446 15.9806 29.0686 15.5538C28.3056 15.127 27.7042 14.5062 27.2644 13.6914C26.8247 12.8637 26.6048 11.8613 26.6048 10.6844C26.6048 8.92547 27.064 7.57393 27.9822 6.6298C28.9005 5.68567 30.1615 5.2136 31.7652 5.2136C32.7611 5.2136 33.6406 5.427 34.4036 5.8538C35.1667 6.2806 35.7681 6.9014 36.2078 7.7162C36.6476 8.51807 36.8674 9.50747 36.8674 10.6844ZM29.5536 10.6844C29.5536 11.732 29.7218 12.5274 30.058 13.0706C30.4072 13.6009 30.9698 13.866 31.7458 13.866C32.5089 13.866 33.0586 13.6009 33.3948 13.0706C33.744 12.5274 33.9186 11.732 33.9186 10.6844C33.9186 9.6368 33.744 8.85433 33.3948 8.337C33.0586 7.80673 32.5024 7.5416 31.7264 7.5416C30.9634 7.5416 30.4072 7.80673 30.058 8.337C29.7218 8.85433 29.5536 9.6368 29.5536 10.6844ZM46.997 5.3494C48.8335 5.5046 50.2368 6.0672 51.2068 7.0372C52.1768 7.99427 52.6618 9.21647 52.6618 10.7038C52.6618 12.1911 52.1897 13.4198 51.2456 14.3898C50.3014 15.3598 48.8852 15.9224 46.997 16.0776V20.656H44.3198V16.0776C42.4962 15.9095 41.0864 15.3404 40.0906 14.3704C39.1076 13.4004 38.6162 12.1782 38.6162 10.7038C38.6162 9.1906 39.0753 7.95547 39.9936 6.9984C40.9248 6.0284 42.3668 5.47873 44.3198 5.3494V1.256H46.997V5.3494ZM44.3198 7.5222C43.4791 7.6386 42.813 7.9878 42.3216 8.5698C41.8301 9.1518 41.5844 9.86313 41.5844 10.7038C41.5844 11.5703 41.8236 12.2946 42.3022 12.8766C42.7807 13.4457 43.4532 13.7819 44.3198 13.8854V7.5222ZM46.997 13.8854C47.8635 13.7819 48.5296 13.4457 48.9952 12.8766C49.4608 12.2946 49.6936 11.5703 49.6936 10.7038C49.6936 9.86313 49.4543 9.15827 48.9758 8.5892C48.4972 8.0072 47.8376 7.66447 46.997 7.561V13.8854ZM61.1678 4.3988C60.0426 4.3988 59.1825 4.81913 58.5876 5.6598C57.9926 6.50047 57.6952 7.65153 57.6952 9.113C57.6952 10.5874 57.9668 11.732 58.51 12.5468C59.0661 13.3487 59.952 13.7496 61.1678 13.7496C61.7368 13.7496 62.2994 13.6849 62.8556 13.5556C63.4246 13.4263 64.039 13.2452 64.6986 13.0124V15.4762C64.0907 15.7219 63.4893 15.903 62.8944 16.0194C62.2994 16.1358 61.6334 16.194 60.8962 16.194C59.4735 16.194 58.2966 15.903 57.3654 15.321C56.4471 14.7261 55.7681 13.8983 55.3284 12.8378C54.8886 11.7643 54.6688 10.5163 54.6688 9.0936C54.6688 7.6968 54.921 6.46167 55.4254 5.3882C55.9298 4.31473 56.6605 3.47407 57.6176 2.8662C58.5876 2.25833 59.771 1.9544 61.1678 1.9544C61.8532 1.9544 62.5387 2.04493 63.2242 2.226C63.9226 2.39413 64.5886 2.62693 65.2224 2.9244L64.2718 5.3106C63.7544 5.06487 63.2306 4.85147 62.7004 4.6704C62.183 4.48933 61.6722 4.3988 61.1678 4.3988ZM76.1779 7.5804H72.7053V16H69.8147V7.5804H66.3421V5.4076H76.1779V7.5804ZM84.0297 5.2136C85.2196 5.2136 86.1831 5.6792 86.9203 6.6104C87.6575 7.52867 88.0261 8.88667 88.0261 10.6844C88.0261 12.4821 87.6446 13.8531 86.8815 14.7972C86.1185 15.7284 85.142 16.194 83.9521 16.194C83.1891 16.194 82.5812 16.0582 82.1285 15.7866C81.6759 15.5021 81.3073 15.1852 81.0227 14.836H80.8675C80.971 15.3792 81.0227 15.8965 81.0227 16.388V20.656H78.1321V5.4076H80.4795L80.8869 6.785H81.0227C81.3073 6.3582 81.6888 5.9896 82.1673 5.6792C82.6459 5.3688 83.2667 5.2136 84.0297 5.2136ZM83.0985 7.5222C82.3484 7.5222 81.8181 7.755 81.5077 8.2206C81.2103 8.6862 81.0486 9.39753 81.0227 10.3546V10.665C81.0227 11.6867 81.1715 12.4757 81.4689 13.0318C81.7793 13.575 82.3355 13.8466 83.1373 13.8466C83.7969 13.8466 84.2819 13.575 84.5923 13.0318C84.9157 12.4757 85.0773 11.6803 85.0773 10.6456C85.0773 8.56333 84.4177 7.5222 83.0985 7.5222ZM100.031 10.6844C100.031 12.4433 99.5655 13.8013 98.6343 14.7584C97.716 15.7155 96.4615 16.194 94.8707 16.194C93.8878 16.194 93.0083 15.9806 92.2323 15.5538C91.4692 15.127 90.8678 14.5062 90.4281 13.6914C89.9884 12.8637 89.7685 11.8613 89.7685 10.6844C89.7685 8.92547 90.2276 7.57393 91.1459 6.6298C92.0642 5.68567 93.3252 5.2136 94.9289 5.2136C95.9248 5.2136 96.8042 5.427 97.5673 5.8538C98.3304 6.2806 98.9318 6.9014 99.3715 7.7162C99.8112 8.51807 100.031 9.50747 100.031 10.6844ZM92.7173 10.6844C92.7173 11.732 92.8854 12.5274 93.2217 13.0706C93.5709 13.6009 94.1335 13.866 94.9095 13.866C95.6726 13.866 96.2222 13.6009 96.5585 13.0706C96.9077 12.5274 97.0823 11.732 97.0823 10.6844C97.0823 9.6368 96.9077 8.85433 96.5585 8.337C96.2222 7.80673 95.6661 7.5416 94.8901 7.5416C94.127 7.5416 93.5709 7.80673 93.2217 8.337C92.8854 8.85433 92.7173 9.6368 92.7173 10.6844ZM112.566 0.8486C112.502 1.52113 112.314 2.11607 112.004 2.6334C111.693 3.1378 111.208 3.53227 110.549 3.8168C109.889 4.10133 109.003 4.2436 107.891 4.2436C106.753 4.2436 105.86 4.1078 105.214 3.8362C104.58 3.55167 104.127 3.1572 103.856 2.6528C103.584 2.1484 103.422 1.547 103.371 0.8486H105.951C106.016 1.55993 106.197 2.032 106.494 2.2648C106.792 2.4976 107.277 2.614 107.949 2.614C108.505 2.614 108.958 2.49113 109.307 2.2454C109.669 1.98673 109.883 1.52113 109.947 0.8486H112.566ZM105.214 9.598C105.214 9.81787 105.201 10.0895 105.175 10.4128C105.162 10.7361 105.143 11.0659 105.117 11.4022C105.104 11.7385 105.084 12.0359 105.058 12.2946C105.033 12.5533 105.013 12.7343 105 12.8378L109.889 5.4076H113.362V16H110.568V11.7708C110.568 11.4216 110.581 11.0401 110.607 10.6262C110.633 10.1994 110.659 9.80493 110.684 9.4428C110.723 9.06773 110.749 8.7832 110.762 8.5892L105.893 16H102.42V5.4076H105.214V9.598Z" fill="#273142"/>
<path d="M122.474 16L119.138 5.136H119.06C119.073 5.39467 119.092 5.78267 119.118 6.3C119.144 6.81733 119.17 7.37347 119.196 7.9684C119.222 8.5504 119.235 9.08067 119.235 9.5592V16H116.616V2.1484H120.612L123.891 12.7408H123.949L127.421 2.1484H131.418V16H128.682V9.4428C128.682 9.00307 128.689 8.49867 128.702 7.9296C128.728 7.36053 128.747 6.8238 128.76 6.3194C128.786 5.80207 128.805 5.41407 128.818 5.1554H128.741L125.171 16H122.474ZM144.306 10.6844C144.306 12.4433 143.841 13.8013 142.91 14.7584C141.991 15.7155 140.737 16.194 139.146 16.194C138.163 16.194 137.284 15.9806 136.508 15.5538C135.744 15.127 135.143 14.5062 134.703 13.6914C134.264 12.8637 134.044 11.8613 134.044 10.6844C134.044 8.92547 134.503 7.57393 135.421 6.6298C136.339 5.68567 137.6 5.2136 139.204 5.2136C140.2 5.2136 141.079 5.427 141.843 5.8538C142.606 6.2806 143.207 6.9014 143.647 7.7162C144.086 8.51807 144.306 9.50747 144.306 10.6844ZM136.993 10.6844C136.993 11.732 137.161 12.5274 137.497 13.0706C137.846 13.6009 138.409 13.866 139.185 13.866C139.948 13.866 140.497 13.6009 140.834 13.0706C141.183 12.5274 141.358 11.732 141.358 10.6844C141.358 9.6368 141.183 8.85433 140.834 8.337C140.497 7.80673 139.941 7.5416 139.165 7.5416C138.402 7.5416 137.846 7.80673 137.497 8.337C137.161 8.85433 136.993 9.6368 136.993 10.6844ZM149.586 5.4076V9.4816H153.621V5.4076H156.512V16H153.621V11.635H149.586V16H146.695V5.4076H149.586ZM168.309 7.5804H164.836V16H161.946V7.5804H158.473V5.4076H168.309V7.5804ZM174.609 5.1942C176.031 5.1942 177.118 5.5046 177.868 6.1254C178.631 6.73327 179.013 7.67093 179.013 8.9384V16H176.995L176.432 14.5644H176.355C175.902 15.1335 175.424 15.5473 174.919 15.806C174.415 16.0647 173.723 16.194 172.843 16.194C171.899 16.194 171.117 15.9224 170.496 15.3792C169.875 14.8231 169.565 13.9759 169.565 12.8378C169.565 11.7126 169.959 10.8849 170.748 10.3546C171.537 9.8114 172.721 9.51393 174.298 9.4622L176.141 9.404V8.9384C176.141 8.38227 175.993 7.97487 175.695 7.7162C175.411 7.45753 175.01 7.3282 174.492 7.3282C173.975 7.3282 173.471 7.4058 172.979 7.561C172.488 7.70327 171.996 7.88433 171.505 8.1042L170.554 6.1448C171.123 5.84733 171.751 5.61453 172.436 5.4464C173.134 5.27827 173.859 5.1942 174.609 5.1942ZM175.016 11.1306C174.085 11.1565 173.438 11.3246 173.076 11.635C172.714 11.9454 172.533 12.3528 172.533 12.8572C172.533 13.2969 172.662 13.6138 172.921 13.8078C173.18 13.9889 173.516 14.0794 173.93 14.0794C174.551 14.0794 175.074 13.8983 175.501 13.5362C175.928 13.1611 176.141 12.6373 176.141 11.9648V11.0918L175.016 11.1306ZM197.026 5.4076L193.126 10.4904L197.394 16H194.31L190.275 10.6262V16H187.578V10.6262L183.543 16H180.458L184.726 10.4904L180.827 5.4076H183.814L187.578 10.5486V5.4076H190.275V10.5486L194.038 5.4076H197.026Z" fill="#FFC80A"/>
</svg>
