<svg width="30" height="30" viewBox="0 0 30 30" fill="none" xmlns="http://www.w3.org/2000/svg">
<path d="M15 15.0387C7.0942 15.0387 0.662109 21.4708 0.662109 29.3766C0.662109 29.7207 0.941407 30 1.28552 30C1.62963 30 1.90893 29.7207 1.90893 29.3766C1.90893 22.1578 7.78125 16.2854 15.0001 16.2854C22.2189 16.2854 28.0913 22.1578 28.0913 29.3766C28.0913 29.7207 28.3706 30 28.7147 30C29.0588 30 29.3381 29.7207 29.3381 29.3766C29.338 21.4695 22.9059 15.0387 15 15.0387Z" fill="black"/>
<path d="M15.0001 0C11.2198 0 8.14282 3.07578 8.14282 6.85726C8.14282 10.6387 11.2199 13.7145 15.0001 13.7145C18.7803 13.7145 21.8573 10.6387 21.8573 6.85726C21.8573 3.07578 18.7803 0 15.0001 0ZM15.0001 12.4678C11.9068 12.4678 9.38958 9.95052 9.38958 6.85726C9.38958 3.764 11.9068 1.24676 15.0001 1.24676C18.0933 1.24676 20.6106 3.764 20.6106 6.85726C20.6106 9.95052 18.0933 12.4678 15.0001 12.4678Z" fill="black"/>
</svg>
